<svg width="23" height="22" viewBox="0 0 23 22" fill="none" xmlns="http://www.w3.org/2000/svg">
<path d="M2.5 2.41448H20V0H2.5V2.41448ZM2.5 4.32917V2.41448H0V4.32917H2.5ZM8.0175 9.65793L2.5 4.32917L0.7325 6.03621L6.25 11.365L8.0175 9.65793ZM6.25 11.365V19.6853H8.75V11.365H6.25ZM6.25 19.6853C6.25003 19.9722 6.32063 20.2549 6.45599 20.5103C6.59135 20.7657 6.78759 20.9863 7.02856 21.1541C7.26952 21.3218 7.5483 21.4319 7.84194 21.4752C8.13558 21.5185 8.43568 21.495 8.7175 21.4044L7.9275 19.113C8.02141 19.0828 8.1214 19.0746 8.21925 19.089C8.3171 19.1034 8.41 19.1401 8.49031 19.196C8.57062 19.2518 8.63605 19.3253 8.68119 19.4104C8.72634 19.4955 8.74992 19.5897 8.75 19.6853H6.25ZM8.7175 21.4044L14.9675 19.3919L14.1775 17.1006L7.9275 19.113L8.7175 21.4044ZM14.9675 19.3919C15.3409 19.2718 15.6657 19.0413 15.8959 18.7329C16.1261 18.4246 16.25 18.0541 16.25 17.674H13.75C13.7498 17.5472 13.7911 17.4235 13.8678 17.3206C13.9445 17.2176 14.0529 17.1407 14.1775 17.1006L14.9675 19.3919ZM16.25 17.674V11.365H13.75V17.674H16.25ZM20 4.32917L14.4825 9.65793L16.25 11.365L21.7675 6.03621L20 4.32917ZM20 2.41448V4.32917H22.5V2.41448H20ZM21.7675 6.03621C22.2364 5.58351 22.4999 4.96948 22.5 4.32917H20L21.7675 6.03621ZM16.25 11.365L14.4825 9.65793C14.0136 10.1106 13.7501 10.7247 13.75 11.365H16.25ZM6.25 11.365H8.75C8.74986 10.7247 8.48637 10.1106 8.0175 9.65793L6.25 11.365ZM0 4.32917C0.000141594 4.96948 0.263627 5.58351 0.7325 6.03621L2.5 4.32917H0ZM20 2.41448H22.5C22.5 1.77412 22.2366 1.15999 21.7678 0.707186C21.2989 0.254382 20.663 0 20 0V2.41448ZM2.5 0C1.83696 0 1.20107 0.254382 0.732233 0.707186C0.263392 1.15999 0 1.77412 0 2.41448H2.5V0Z" fill="black" fill-opacity="0.5"/>
</svg>
