<?xml version="1.0" standalone="no"?>
<!DOCTYPE svg PUBLIC "-//W3C//DTD SVG 20010904//EN"
 "http://www.w3.org/TR/2001/REC-SVG-20010904/DTD/svg10.dtd">
<svg version="1.0" xmlns="http://www.w3.org/2000/svg"
 width="512.000000pt" height="512.000000pt" viewBox="0 0 512.000000 512.000000"
 preserveAspectRatio="xMidYMid meet">

<g transform="translate(0.000000,512.000000) scale(0.100000,-0.100000)"
fill="#000000" stroke="none">
<path d="M390 4900 c-81 -12 -127 -30 -188 -70 -174 -117 -246 -339 -169 -528
12 -31 500 -921 1082 -1976 933 -1689 1067 -1926 1115 -1976 176 -182 484
-182 660 0 48 50 182 287 1115 1976 582 1055 1070 1945 1082 1976 93 229 -31
492 -274 582 l-58 21 -2160 1 c-1188 1 -2180 -2 -2205 -6z m3950 -636 c0 -13
-1773 -3214 -1780 -3214 -7 0 -1780 3201 -1780 3214 0 3 801 6 1780 6 979 0
1780 -3 1780 -6z"/>
</g>
</svg>
