<svg width="74" height="70" viewBox="0 0 74 70" fill="none" xmlns="http://www.w3.org/2000/svg">
<path d="M51.666 59.1673C51.666 56.2941 52.8074 53.5386 54.839 51.507C56.8707 49.4753 59.6262 48.334 62.4993 48.334C65.3725 48.334 68.128 49.4753 70.1597 51.507C72.1913 53.5386 73.3327 56.2941 73.3327 59.1673C73.3327 62.0405 72.1913 64.796 70.1597 66.8276C68.128 68.8593 65.3725 70.0007 62.4993 70.0007C59.6262 70.0007 56.8707 68.8593 54.839 66.8276C52.8074 64.796 51.666 62.0405 51.666 59.1673ZM62.4993 53.334C61.7331 53.3342 60.9744 53.4853 60.2665 53.7788C59.5587 54.0722 58.9155 54.5022 58.3739 55.0442C57.8322 55.5862 57.4026 56.2295 57.1095 56.9376C56.8165 57.6456 56.6658 58.4044 56.666 59.1706C56.6662 59.9369 56.8174 60.6956 57.1108 61.4035C57.4043 62.1113 57.8342 62.7545 58.3762 63.2961C58.9182 63.8378 59.5616 64.2674 60.2696 64.5605C60.9776 64.8535 61.7364 65.0042 62.5027 65.004C64.0502 65.0035 65.5342 64.3884 66.6282 63.2938C67.7221 62.1992 68.3365 60.7149 68.336 59.1673C68.3356 57.6198 67.7204 56.1358 66.6258 55.0418C65.5312 53.9479 64.0469 53.3335 62.4993 53.334Z" fill="#1379FF"/>
<path d="M43.0167 0.733333C43.4848 1.20208 43.7478 1.8375 43.7478 2.5C43.7478 3.1625 43.4848 3.79792 43.0167 4.26667L38.95 8.33333H52.5C55.8152 8.33333 58.9946 9.65029 61.3388 11.9945C63.683 14.3387 65 17.5181 65 20.8333V50C65 50.663 64.7366 51.2989 64.2678 51.7678C63.7989 52.2366 63.163 52.5 62.5 52.5C61.837 52.5 61.2011 52.2366 60.7322 51.7678C60.2634 51.2989 60 50.663 60 50V20.8333C60 19.8484 59.806 18.8731 59.4291 17.9632C59.0522 17.0533 58.4997 16.2265 57.8033 15.53C57.1069 14.8336 56.2801 14.2811 55.3701 13.9042C54.4602 13.5273 53.4849 13.3333 52.5 13.3333H38.9533L43.02 17.4C43.4752 17.8717 43.7269 18.5033 43.7209 19.1588C43.7149 19.8143 43.4516 20.4412 42.9879 20.9045C42.5242 21.3678 41.897 21.6305 41.2415 21.6359C40.586 21.6412 39.9546 21.389 39.4833 20.9333L31.15 12.6C30.6818 12.1312 30.4189 11.4958 30.4189 10.8333C30.4189 10.1708 30.6818 9.53542 31.15 9.06667L39.4833 0.733333C39.9521 0.265165 40.5875 0.00219981 41.25 0.00219981C41.9125 0.00219981 42.5479 0.265165 43.0167 0.733333ZM21.6667 10.8333C21.6667 13.7065 20.5253 16.462 18.4937 18.4937C16.462 20.5253 13.7065 21.6667 10.8333 21.6667C7.96015 21.6667 5.20465 20.5253 3.17301 18.4937C1.14137 16.462 0 13.7065 0 10.8333C0 7.96015 1.14137 5.20465 3.17301 3.17301C5.20465 1.14137 7.96015 0 10.8333 0C13.7065 0 16.462 1.14137 18.4937 3.17301C20.5253 5.20465 21.6667 7.96015 21.6667 10.8333ZM10.8333 16.6667C12.3809 16.6662 13.8649 16.051 14.9588 14.9565C16.0528 13.8619 16.6671 12.3775 16.6667 10.83C16.6662 9.28246 16.051 7.79848 14.9565 6.70452C13.8619 5.61056 12.3775 4.99622 10.83 4.99667C10.0637 4.99689 9.30502 5.14803 8.59717 5.44147C7.88932 5.73491 7.2462 6.16489 6.70452 6.70688C5.61056 7.80146 4.99622 9.2858 4.99667 10.8333C4.99711 12.3809 5.61229 13.8649 6.70688 14.9588C7.80146 16.0528 9.2858 16.6671 10.8333 16.6667Z" fill="#1379FF"/>
<path d="M30.3154 69.2667C29.8472 68.7979 29.5842 68.1625 29.5842 67.5C29.5842 66.8375 29.8472 66.2021 30.3154 65.7333L34.382 61.6667H20.832C17.5168 61.6667 14.3374 60.3497 11.9932 58.0055C9.64899 55.6613 8.33203 52.4819 8.33203 49.1667V20C8.33203 19.337 8.59542 18.7011 9.06426 18.2322C9.53311 17.7634 10.169 17.5 10.832 17.5C11.4951 17.5 12.131 17.7634 12.5998 18.2322C13.0686 18.7011 13.332 19.337 13.332 20V49.1667C13.332 51.1558 14.1222 53.0634 15.5287 54.47C16.9353 55.8765 18.8429 56.6667 20.832 56.6667H34.3787L30.312 52.6C29.9908 52.2925 29.7577 51.9046 29.6368 51.4766C29.5159 51.0487 29.5117 50.5962 29.6246 50.166C29.7375 49.7359 29.9634 49.3438 30.2788 49.0303C30.5943 48.7169 30.9878 48.4935 31.4187 48.3833C31.8479 48.2714 32.2992 48.2757 32.7263 48.3958C33.1533 48.5159 33.5407 48.7474 33.8487 49.0667L42.182 57.4C42.6502 57.8688 42.9132 58.5042 42.9132 59.1667C42.9132 59.8292 42.6502 60.4646 42.182 60.9333L33.8487 69.2667C33.3799 69.7348 32.7445 69.9978 32.082 69.9978C31.4195 69.9978 30.7841 69.7348 30.3154 69.2667Z" fill="#1379FF"/>
</svg>
