<svg width="68" height="67" viewBox="0 0 68 67" fill="none" xmlns="http://www.w3.org/2000/svg">
<path d="M20 0C22.6522 0 25.1957 1.05357 27.0711 2.92893C28.9464 4.8043 30 7.34784 30 10V12.5H36.6667V10C36.6667 7.34784 37.7202 4.8043 39.5956 2.92893C41.471 1.05357 44.0145 0 46.6667 0H56.6667C59.3188 0 61.8624 1.05357 63.7377 2.92893C65.6131 4.8043 66.6667 7.34784 66.6667 10V20C66.6666 22.5633 65.6823 25.0287 63.9169 26.8871C62.1515 28.7455 59.7399 29.8551 57.18 29.9867L56.6667 30H46.6667L46.1533 29.9867C44.5435 29.9023 42.9779 29.43 41.59 28.61L28.6067 41.5967C29.4867 43.0833 30 44.8133 30 46.6667V49.1667H58.9633L51.5667 41.7667C51.3347 41.5347 51.1506 41.2592 51.0251 40.9561C50.8995 40.653 50.8349 40.3281 50.8349 40C50.8349 39.6719 50.8995 39.347 51.0251 39.0439C51.1506 38.7408 51.3347 38.4653 51.5667 38.2333C51.7987 38.0013 52.0741 37.8173 52.3772 37.6917C52.6803 37.5662 53.0052 37.5016 53.3333 37.5016C53.6614 37.5016 53.9863 37.5662 54.2895 37.6917C54.5926 37.8173 54.868 38.0013 55.1 38.2333L66.7667 49.9C67.2348 50.3687 67.4978 51.0042 67.4978 51.6667C67.4978 52.3292 67.2348 52.9646 66.7667 53.4333L55.1 65.1C54.868 65.332 54.5926 65.516 54.2895 65.6416C53.9863 65.7672 53.6614 65.8318 53.3333 65.8318C53.0052 65.8318 52.6803 65.7672 52.3772 65.6416C52.0741 65.516 51.7987 65.332 51.5667 65.1C51.3347 64.868 51.1506 64.5926 51.0251 64.2894C50.8995 63.9863 50.8349 63.6614 50.8349 63.3333C50.8349 63.0052 50.8995 62.6803 51.0251 62.3772C51.1506 62.0741 51.3347 61.7987 51.5667 61.5667L58.9633 54.1667H30V56.6667C30 59.2299 29.0156 61.6953 27.2502 63.5538C25.4848 65.4122 23.0732 66.5218 20.5133 66.6533L20 66.6667H10L9.48667 66.6533C7.01533 66.5263 4.67888 65.4874 2.92907 63.7376C1.17927 61.9878 0.140398 59.6513 0.0133332 57.18L0 56.6667V46.6667C0 44.0145 1.05357 41.471 2.92893 39.5956C4.8043 37.7202 7.34784 36.6667 10 36.6667H20C21.8533 36.6667 23.5833 37.1767 25.07 38.0567L38.0533 25.0733C37.235 23.6861 36.7639 22.1217 36.68 20.5133L36.6667 20V17.5H30V20C30 22.5633 29.0156 25.0287 27.2502 26.8871C25.4848 28.7455 23.0732 29.8551 20.5133 29.9867L20 30H10L9.48667 29.9867C7.01533 29.8596 4.67888 28.8207 2.92907 27.0709C1.17927 25.3211 0.140398 22.9847 0.0133332 20.5133L0 20V10C0 7.34784 1.05357 4.8043 2.92893 2.92893C4.8043 1.05357 7.34784 0 10 0H20ZM10 41.6667C8.67392 41.6667 7.40215 42.1935 6.46447 43.1311C5.52678 44.0688 5 45.3406 5 46.6667V56.6667C5 57.9927 5.52678 59.2645 6.46447 60.2022C7.40215 61.1399 8.67392 61.6667 10 61.6667H20C21.3261 61.6667 22.5979 61.1399 23.5355 60.2022C24.4732 59.2645 25 57.9927 25 56.6667V46.6667C25 45.3406 24.4732 44.0688 23.5355 43.1311C22.5979 42.1935 21.3261 41.6667 20 41.6667H10ZM10 5C8.67392 5 7.40215 5.52678 6.46447 6.46447C5.52678 7.40215 5 8.67392 5 10V20C5 21.3261 5.52678 22.5979 6.46447 23.5355C7.40215 24.4732 8.67392 25 10 25H20C21.3261 25 22.5979 24.4732 23.5355 23.5355C24.4732 22.5979 25 21.3261 25 20V10C25 8.67392 24.4732 7.40215 23.5355 6.46447C22.5979 5.52678 21.3261 5 20 5H10ZM46.6667 5C45.3406 5 44.0688 5.52678 43.1311 6.46447C42.1935 7.40215 41.6667 8.67392 41.6667 10V20C41.6667 21.3261 42.1935 22.5979 43.1311 23.5355C44.0688 24.4732 45.3406 25 46.6667 25H56.6667C57.9928 25 59.2645 24.4732 60.2022 23.5355C61.1399 22.5979 61.6667 21.3261 61.6667 20V10C61.6667 8.67392 61.1399 7.40215 60.2022 6.46447C59.2645 5.52678 57.9928 5 56.6667 5H46.6667Z" fill="#1379FF"/>
</svg>
