<?xml version="1.0" encoding="UTF-8"?>
<svg version="1.1" xmlns="http://www.w3.org/2000/svg" width="512" height="512">
<path d="M0 0 C1.01790619 0.00215515 2.03581238 0.0043103 3.08456421 0.00653076 C17.69363523 0.05620146 32.02575853 0.30709809 46.375 3.3125 C47.34985352 3.51117676 48.32470703 3.70985352 49.32910156 3.91455078 C97.7109774 14.03517194 141.69928269 35.9516877 177.375 70.3125 C178.3640332 71.26068604 178.3640332 71.26068604 179.37304688 72.22802734 C188.86130305 81.37247479 197.6012044 90.66984009 205.375 101.3125 C206.23306152 102.46355017 207.09113451 103.61459177 207.94921875 104.765625 C213.98736829 112.95680614 219.34595521 121.47054105 224.375 130.3125 C224.73948242 130.94430176 225.10396484 131.57610352 225.47949219 132.22705078 C247.08534998 169.97532572 256.85198095 212.74189997 256.6875 255.9375 C256.68534485 256.95540619 256.6831897 257.97331238 256.68096924 259.02206421 C256.63129854 273.63113523 256.38040191 287.96325853 253.375 302.3125 C253.07698486 303.77478027 253.07698486 303.77478027 252.77294922 305.26660156 C240.31286762 364.83232498 208.4226363 421.18616419 159.375 458.3125 C158.83617187 458.72773926 158.29734375 459.14297852 157.7421875 459.57080078 C125.87232453 484.07165115 89.31918759 500.56392134 49.9375 508.625 C49.21860596 508.77235596 48.49971191 508.91971191 47.7590332 509.0715332 C33.08339502 511.86090125 18.55831162 512.66142619 3.64770508 512.62817383 C0.70811513 512.6250221 -2.2304558 512.64854926 -5.16992188 512.67382812 C-18.54306192 512.71848737 -31.43916711 511.51301542 -44.625 509.3125 C-46.33055054 509.03031616 -46.33055054 509.03031616 -48.07055664 508.74243164 C-91.33802759 500.97044532 -132.38793216 480.98345309 -165.625 452.3125 C-166.37007813 451.67828125 -167.11515625 451.0440625 -167.8828125 450.390625 C-181.38779833 438.57948485 -194.05918743 425.82889772 -204.625 411.3125 C-205.48149066 410.16255169 -206.33826433 409.01281411 -207.1953125 407.86328125 C-213.23534209 399.67315742 -218.61867614 391.16870382 -223.625 382.3125 C-224.0271875 381.60528809 -224.429375 380.89807617 -224.84375 380.16943359 C-237.8691741 357.03404164 -246.61801461 331.86287591 -251.9375 305.875 C-252.08485596 305.15610596 -252.23221191 304.43721191 -252.3840332 303.6965332 C-255.35789088 288.05024391 -255.99800362 272.57681954 -255.9375 256.6875 C-255.93534485 255.66959381 -255.9331897 254.65168762 -255.93096924 253.60293579 C-255.88129854 238.99386477 -255.63040191 224.66174147 -252.625 210.3125 C-252.42632324 209.33764648 -252.22764648 208.36279297 -252.02294922 207.35839844 C-241.90232806 158.9765226 -219.9858123 114.98821731 -185.625 79.3125 C-184.99287598 78.65314453 -184.36075195 77.99378906 -183.70947266 77.31445312 C-174.56502521 67.82619695 -165.26765991 59.0862956 -154.625 51.3125 C-153.47394983 50.45443848 -152.32290823 49.59636549 -151.171875 48.73828125 C-142.98224019 42.70072604 -134.47961724 37.31792698 -125.625 32.3125 C-124.91778809 31.9103125 -124.21057617 31.508125 -123.48193359 31.09375 C-100.34654164 18.0683259 -75.17537591 9.31948539 -49.1875 4 C-48.46860596 3.85264404 -47.74971191 3.70528809 -47.0090332 3.5534668 C-31.36274391 0.57960912 -15.88931954 -0.06050362 0 0 Z M-65.625 55.3125 C-66.89754639 55.73740723 -66.89754639 55.73740723 -68.19580078 56.17089844 C-89.37875276 63.40098388 -108.85551514 73.71783445 -126.625 87.3125 C-127.5634375 88.02019531 -128.501875 88.72789063 -129.46875 89.45703125 C-136.19876653 94.68557257 -142.42975561 100.47078858 -148.625 106.3125 C-149.40875 107.04210937 -150.1925 107.77171875 -151 108.5234375 C-157.61491086 114.87847686 -163.12335067 122.00125305 -168.625 129.3125 C-169.05458008 129.87598145 -169.48416016 130.43946289 -169.92675781 131.02001953 C-188.92541222 156.05173395 -201.29338794 185.6294485 -207.625 216.3125 C-207.79016113 217.11187988 -207.95532227 217.91125977 -208.12548828 218.73486328 C-214.75202555 252.77210278 -211.61370818 289.60995384 -200.625 322.3125 C-200.1921167 323.60099854 -200.1921167 323.60099854 -199.75048828 324.91552734 C-191.31788858 349.45626234 -178.38967854 370.86411261 -162.625 391.3125 C-155.91972992 385.80502959 -149.85620713 379.68046853 -143.73573303 373.54348755 C-142.52958798 372.33777895 -141.32322305 371.13229029 -140.11665815 369.92700183 C-136.8123677 366.6249418 -133.51119402 363.31978129 -130.21053064 360.01409626 C-126.64665283 356.44589325 -123.07987857 352.88058759 -119.51345825 349.31492615 C-113.33829481 343.14028663 -107.16496251 336.96382127 -100.99287605 330.78610611 C-92.06911115 321.85420838 -83.14258072 312.92507873 -74.21537655 303.99661861 C-59.73106391 289.51011826 -45.24898507 275.02138693 -30.76831055 260.53125 C-16.70307708 246.45683517 -2.63679196 232.38347276 11.4309082 218.31152344 C12.29828485 217.44388407 13.1656615 216.57624469 14.05932229 215.68231322 C18.41077537 211.32955508 22.76224913 206.97681762 27.11373317 202.62409043 C63.20402842 166.52343131 99.29069872 130.4191503 135.375 94.3125 C131.35792988 90.26047492 127.34174482 86.89605775 122.6875 83.625 C121.57689209 82.84443237 121.57689209 82.84443237 120.44384766 82.0480957 C112.42221319 76.51288125 104.03426431 71.77006219 95.375 67.3125 C94.73884766 66.98411133 94.10269531 66.65572266 93.44726562 66.31738281 C76.72339891 57.81326993 58.69626955 52.17247074 40.375 48.3125 C39.6133252 48.14733887 38.85165039 47.98217773 38.06689453 47.81201172 C4.24130209 40.81236526 -33.12853722 44.41151056 -65.625 55.3125 Z M164.35284084 128.21046066 C163.00464381 129.55922728 163.00464381 129.55922728 161.62921047 130.9352417 C161.12829802 131.43500031 160.62738556 131.93475892 160.11129394 132.44966173 C158.41094902 134.14733166 156.7142335 135.84858488 155.0174408 137.54980469 C153.79585054 138.77095942 152.5740408 139.99189461 151.35202891 141.21262741 C147.97716543 144.58524218 144.60544922 147.96098852 141.23420942 151.33722496 C137.60477276 154.97096059 133.97246685 158.601826 130.34049988 162.23303223 C124.04245533 168.53055118 117.74625138 174.82990556 111.45127678 181.13049316 C102.34967918 190.24020106 93.2453374 199.34716228 84.14031298 208.45344496 C69.3698254 223.22612379 54.60157462 238.00103666 39.8347168 252.77734375 C25.4859501 267.13528265 11.13613857 281.49217595 -3.21508789 295.84765625 C-4.54091984 297.17388229 -4.54091984 297.17388229 -5.89353628 298.52690077 C-10.32753355 302.96220304 -14.76155147 307.39748467 -19.19557965 311.83275604 C-56.00858719 348.65613851 -92.81797054 385.48314218 -129.625 422.3125 C-126.32199908 425.71241157 -122.824028 428.39895752 -118.875 431 C-117.89080078 431.65029175 -117.89080078 431.65029175 -116.88671875 432.3137207 C-109.66907585 437.02076746 -102.24276617 441.28959119 -94.625 445.3125 C-93.50480469 445.90675781 -92.38460937 446.50101562 -91.23046875 447.11328125 C-71.32599554 457.00864793 -49.51222726 462.88111557 -27.625 466.3125 C-26.58786865 466.47721802 -26.58786865 466.47721802 -25.52978516 466.64526367 C4.90393659 470.7340858 37.43751435 467.08170543 66.375 457.3125 C67.22191406 457.02922852 68.06882812 456.74595703 68.94140625 456.45410156 C90.12996091 449.22346734 109.59692612 438.90302985 127.375 425.3125 C128.30183594 424.61640625 129.22867187 423.9203125 130.18359375 423.203125 C137.30498744 417.68831772 143.84064268 411.49984008 150.375 405.3125 C151.05691406 404.673125 151.73882812 404.03375 152.44140625 403.375 C188.45086423 368.61877142 210.69787297 315.30303893 211.7109375 265.5703125 C211.75122575 262.52575504 211.75785967 259.48228744 211.75 256.4375 C211.74945618 255.63634766 211.74891235 254.83519531 211.74835205 254.00976562 C211.68030214 232.04216484 208.3796547 211.15844841 201.375 190.3125 C201.08641113 189.45350098 200.79782227 188.59450195 200.50048828 187.70947266 C193.77852925 168.14708134 184.33222877 150.16688731 172.375 133.3125 C171.92479492 132.6637793 171.47458984 132.01505859 171.01074219 131.34667969 C169.82456998 129.65032589 168.60273807 127.97901731 167.375 126.3125 C166.03430159 126.1984399 166.03430159 126.1984399 164.35284084 128.21046066 Z " fill="#DD342D" transform="translate(255.625,-0.3125)"/>
</svg>
