<svg width="70" height="70" viewBox="0 0 70 70" fill="none" xmlns="http://www.w3.org/2000/svg">
<path d="M35 0C28.0777 0 21.3108 2.05271 15.5551 5.89856C9.79934 9.74441 5.3133 15.2107 2.66423 21.6061C0.0151649 28.0015 -0.677952 35.0388 0.672531 41.8282C2.02301 48.6175 5.35644 54.8539 10.2513 59.7487C15.1461 64.6436 21.3825 67.977 28.1719 69.3275C34.9612 70.678 41.9985 69.9848 48.3939 67.3358C54.7893 64.6867 60.2556 60.2007 64.1014 54.445C67.9473 48.6892 70 41.9223 70 35C70 25.7174 66.3125 16.815 59.7487 10.2513C53.185 3.68749 44.2826 0 35 0ZM35 65C29.0666 65 23.2664 63.2405 18.3329 59.9441C13.3994 56.6476 9.55426 51.9623 7.28363 46.4805C5.013 40.9987 4.4189 34.9667 5.57646 29.1473C6.73401 23.3279 9.59124 17.9824 13.7868 13.7868C17.9824 9.59122 23.3279 6.734 29.1473 5.57644C34.9667 4.41888 40.9987 5.01298 46.4805 7.28361C51.9623 9.55424 56.6477 13.3994 59.9441 18.3329C63.2405 23.2664 65 29.0666 65 35C65 42.9565 61.8393 50.5871 56.2132 56.2132C50.5871 61.8393 42.9565 65 35 65Z" fill="#F31818"/>
<path d="M32.5 15H37.5V42.5H32.5V15ZM35 50C34.2583 50 33.5333 50.2199 32.9166 50.632C32.2999 51.044 31.8193 51.6297 31.5355 52.3149C31.2516 53.0002 31.1774 53.7542 31.3221 54.4816C31.4668 55.209 31.8239 55.8772 32.3484 56.4016C32.8728 56.9261 33.541 57.2832 34.2684 57.4279C34.9958 57.5726 35.7498 57.4984 36.4351 57.2145C37.1203 56.9307 37.706 56.4501 38.118 55.8334C38.5301 55.2167 38.75 54.4917 38.75 53.75C38.75 52.7554 38.3549 51.8016 37.6517 51.0984C36.9484 50.3951 35.9946 50 35 50Z" fill="#F31818"/>
</svg>
