<svg width="74" height="64" viewBox="0 0 74 64" fill="none" xmlns="http://www.w3.org/2000/svg">
<path d="M0 63.3333L36.6667 0L73.3333 63.3333H0ZM11.5 56.6667H61.8333L36.6667 13.3333L11.5 56.6667ZM36.6667 53.3333C37.6111 53.3333 38.4033 53.0133 39.0433 52.3733C39.6833 51.7333 40.0022 50.9422 40 50C39.9978 49.0578 39.6778 48.2667 39.04 47.6267C38.4022 46.9867 37.6111 46.6667 36.6667 46.6667C35.7222 46.6667 34.9311 46.9867 34.2933 47.6267C33.6556 48.2667 33.3356 49.0578 33.3333 50C33.3311 50.9422 33.6511 51.7344 34.2933 52.3767C34.9356 53.0189 35.7267 53.3378 36.6667 53.3333ZM33.3333 43.3333H40V26.6667H33.3333V43.3333Z" fill="#FFC000"/>
</svg>
