<svg width="40" height="40" viewBox="0 0 40 40" fill="none" xmlns="http://www.w3.org/2000/svg">
<path d="M3.75 2.14286V35.7143H38.125C38.6223 35.7143 39.0992 35.9401 39.4508 36.3419C39.8025 36.7438 40 37.2888 40 37.8571C40 38.4255 39.8025 38.9705 39.4508 39.3724C39.0992 39.7742 38.6223 40 38.125 40H1.875C1.37772 40 0.900805 39.7742 0.549175 39.3724C0.197544 38.9705 0 38.4255 0 37.8571L0 2.14286C0 1.57454 0.197544 1.02949 0.549175 0.627628C0.900805 0.225765 1.37772 0 1.875 0C2.37228 0 2.84919 0.225765 3.20083 0.627628C3.55246 1.02949 3.75 1.57454 3.75 2.14286ZM39.45 9.37143L26.325 24.3714C25.9734 24.7727 25.4969 24.9981 25 24.9981C24.5031 24.9981 24.0266 24.7727 23.675 24.3714L17.5 17.3143L10.7 25.0857C10.3446 25.4647 9.87439 25.6712 9.38841 25.6616C8.90243 25.652 8.4387 25.4271 8.095 25.0343C7.75132 24.6415 7.55453 24.1115 7.54614 23.5561C7.53774 23.0007 7.71839 22.4633 8.05 22.0571L16.175 12.7714C16.5266 12.3701 17.0031 12.1447 17.5 12.1447C17.9969 12.1447 18.4734 12.3701 18.825 12.7714L25 19.8286L36.8 6.34286C37.1554 5.96388 37.6256 5.75742 38.1116 5.76701C38.5976 5.77661 39.0613 6.00151 39.405 6.39429C39.7487 6.78708 39.9455 7.31706 39.9539 7.87247C39.9623 8.42787 39.7816 8.9653 39.45 9.37143Z" fill="black"/>
</svg>
