<svg width="35" height="39" viewBox="0 0 35 39" fill="none" xmlns="http://www.w3.org/2000/svg">
<path d="M34.6667 30.3333V8.66667C34.6667 3.96933 26.7302 0 17.3333 0C7.9365 0 0 3.96933 0 8.66667V30.3333C0 35.0307 7.9365 39 17.3333 39C26.7302 39 34.6667 35.0307 34.6667 30.3333ZM17.3333 4.33333C25.3305 4.33333 30.1838 7.5985 30.3333 8.65367C30.1838 9.73483 25.3305 13 17.3333 13C9.33617 13 4.48283 9.73483 4.33333 8.67967C4.48283 7.5985 9.33617 4.33333 17.3333 4.33333ZM4.33333 14.3152C7.53783 16.1503 12.2135 17.3333 17.3333 17.3333C22.4532 17.3333 27.1288 16.1503 30.3333 14.3152V19.487C30.1838 20.5682 25.3305 23.8333 17.3333 23.8333C9.33617 23.8333 4.48283 20.5682 4.33333 19.5V14.3152ZM4.33333 30.3333V25.1485C7.53783 26.9837 12.2135 28.1667 17.3333 28.1667C22.4532 28.1667 27.1288 26.9837 30.3333 25.1485V30.3203C30.1838 31.4015 25.3305 34.6667 17.3333 34.6667C9.33617 34.6667 4.48283 31.4015 4.33333 30.3333Z" fill="black"/>
</svg>
