<svg width="40" height="40" viewBox="0 0 40 40" fill="none" xmlns="http://www.w3.org/2000/svg">
<path d="M4.44444 40C3.22222 40 2.1763 39.5652 1.30667 38.6956C0.437037 37.8259 0.00148148 36.7793 0 35.5556V4.44444C0 3.22222 0.435556 2.1763 1.30667 1.30667C2.17778 0.437037 3.2237 0.00148148 4.44444 0H35.5556C36.7778 0 37.8244 0.435556 38.6956 1.30667C39.5667 2.17778 40.0015 3.2237 40 4.44444V35.5556C40 36.7778 39.5652 37.8244 38.6956 38.6956C37.8259 39.5667 36.7793 40.0015 35.5556 40H4.44444ZM4.44444 35.5556H35.5556V4.44444H4.44444V35.5556ZM6.66667 31.1111H33.3333L25 20L18.3333 28.8889L13.3333 22.2222L6.66667 31.1111Z" fill="black"/>
</svg>
