<svg width="44" height="44" viewBox="0 0 44 44" fill="none" xmlns="http://www.w3.org/2000/svg">
<path d="M38.9993 0H12.9993C10.6095 0 8.66602 1.9435 8.66602 4.33333V30.3333C8.66602 32.7232 10.6095 34.6667 12.9993 34.6667H38.9993C41.3892 34.6667 43.3327 32.7232 43.3327 30.3333V4.33333C43.3327 1.9435 41.3892 0 38.9993 0ZM12.9993 30.3333V4.33333H38.9993L39.0037 30.3333H12.9993Z" fill="black"/>
<path d="M4.33333 13.0008H0V39.0008C0 41.3906 1.9435 43.3341 4.33333 43.3341H30.3333V39.0008H4.33333V13.0008ZM23.6882 20.6253L19.9485 16.8856L16.8848 19.9493L23.9785 27.043L36.3328 12.223L33.0005 9.44531L23.6882 20.6253Z" fill="black"/>
</svg>
