<svg width="44" height="44" viewBox="0 0 44 44" fill="none" xmlns="http://www.w3.org/2000/svg">
<path d="M31.358 20.0136L16.9713 12.818C16.5646 12.6145 16.1126 12.5184 15.6583 12.5388C15.204 12.5592 14.7624 12.6955 14.3756 12.9347C13.9888 13.1738 13.6696 13.508 13.4483 13.9053C13.227 14.3026 13.111 14.7499 13.1113 15.2047V28.7958C13.111 29.2506 13.227 29.6979 13.4483 30.0952C13.6696 30.4926 13.9888 30.8267 14.3756 31.0659C14.7624 31.305 15.204 31.4413 15.6583 31.4617C16.1126 31.4821 16.5646 31.386 16.9713 31.1825L31.358 23.9869C31.7266 23.8022 32.0366 23.5185 32.2532 23.1677C32.4698 22.8168 32.5845 22.4126 32.5845 22.0003C32.5845 21.5879 32.4698 21.1837 32.2532 20.8329C32.0366 20.482 31.7266 20.1984 31.358 20.0136Z" stroke="black" stroke-width="4" stroke-linecap="round" stroke-linejoin="round"/>
<path d="M22 42C33.0457 42 42 33.0457 42 22C42 10.9543 33.0457 2 22 2C10.9543 2 2 10.9543 2 22C2 33.0457 10.9543 42 22 42Z" stroke="black" stroke-width="4"/>
</svg>
