<svg width="32" height="32" viewBox="0 0 32 32" fill="none" xmlns="http://www.w3.org/2000/svg">
<path d="M3 1.71429V28.5714H30.5C30.8978 28.5714 31.2794 28.752 31.5607 29.0735C31.842 29.395 32 29.8311 32 30.2857C32 30.7404 31.842 31.1764 31.5607 31.4979C31.2794 31.8194 30.8978 32 30.5 32H1.5C1.10218 32 0.720644 31.8194 0.43934 31.4979C0.158035 31.1764 0 30.7404 0 30.2857L0 1.71429C0 1.25963 0.158035 0.823594 0.43934 0.502103C0.720644 0.180612 1.10218 0 1.5 0C1.89782 0 2.27936 0.180612 2.56066 0.502103C2.84196 0.823594 3 1.25963 3 1.71429ZM31.56 7.49714L21.06 19.4971C20.7787 19.8182 20.3975 19.9985 20 19.9985C19.6025 19.9985 19.2213 19.8182 18.94 19.4971L14 13.8514L8.56 20.0686C8.27571 20.3718 7.89951 20.5369 7.51073 20.5292C7.12194 20.5216 6.75096 20.3417 6.476 20.0274C6.20105 19.7132 6.04363 19.2892 6.03691 18.8449C6.03019 18.4006 6.17472 17.9706 6.44 17.6457L12.94 10.2171C13.2213 9.89611 13.6025 9.71579 14 9.71579C14.3975 9.71579 14.7787 9.89611 15.06 10.2171L20 15.8629L29.44 5.07429C29.7243 4.7711 30.1005 4.60594 30.4893 4.61361C30.8781 4.62129 31.249 4.80121 31.524 5.11543C31.7989 5.42967 31.9564 5.85365 31.9631 6.29797C31.9698 6.7423 31.8253 7.17224 31.56 7.49714Z" fill="black"/>
</svg>
