<svg width="23" height="35" viewBox="0 0 23 35" fill="none" xmlns="http://www.w3.org/2000/svg">
<path d="M15.2044 1.57143L1.5 20.9286H9.5L7.53063 33.3021C7.52688 33.3264 7.52783 33.3513 7.53343 33.3751C7.53902 33.399 7.54912 33.4211 7.563 33.4399C7.57689 33.4588 7.59423 33.474 7.61379 33.4843C7.63336 33.4947 7.65468 33.5001 7.67625 33.5C7.6992 33.5 7.72183 33.4938 7.74234 33.482C7.76284 33.4703 7.78066 33.4532 7.79438 33.4321L21.5 14.0714H13.5L15.4788 1.69643C15.4814 1.67178 15.4795 1.64676 15.473 1.62304C15.4665 1.59931 15.4557 1.57744 15.4413 1.55885C15.4269 1.54027 15.4092 1.52541 15.3893 1.51527C15.3695 1.50512 15.348 1.49992 15.3263 1.5C15.3025 1.50011 15.279 1.50663 15.2578 1.51905C15.2367 1.53146 15.2183 1.5494 15.2044 1.57143Z" stroke="black" stroke-width="3" stroke-linecap="round" stroke-linejoin="round"/>
</svg>
