<svg width="27" height="31" viewBox="0 0 27 31" fill="none" xmlns="http://www.w3.org/2000/svg">
<path d="M10.9375 15.9578L8.10469 13.125L6.5625 14.6672L10.9375 19.0422L19.6875 10.2922L18.1453 8.75L10.9375 15.9578Z" fill="black"/>
<path d="M13.125 30.625L6.37001 27.0233C4.44412 25.999 2.83359 24.4694 1.71133 22.5989C0.589063 20.7284 -0.00254872 18.5876 8.25347e-06 16.4062V2.1875C8.25347e-06 1.60734 0.230476 1.05094 0.640712 0.640704C1.05095 0.230468 1.60735 0 2.18751 0H24.0625C24.6427 0 25.1991 0.230468 25.6093 0.640704C26.0195 1.05094 26.25 1.60734 26.25 2.1875V16.4062C26.2526 18.5876 25.661 20.7284 24.5387 22.5989C23.4164 24.4694 21.8059 25.999 19.88 27.0233L13.125 30.625ZM2.18751 2.1875V16.4062C2.18629 18.1909 2.67081 19.9423 3.58913 21.4725C4.50744 23.0028 5.82492 24.2543 7.40032 25.0928L13.125 28.1455L18.8497 25.0939C20.4253 24.2553 21.7428 23.0036 22.6612 21.4732C23.5795 19.9427 24.0639 18.1911 24.0625 16.4062V2.1875H2.18751Z" fill="black"/>
</svg>
