<svg width="48" height="49" viewBox="0 0 48 49" fill="none" xmlns="http://www.w3.org/2000/svg">
<path fill-rule="evenodd" clip-rule="evenodd" d="M18.7369 0.125682L18.7423 1.54553e-05H14.1024C11.9758 1.54553e-05 10.0323 0.0671821 8.77893 0.123515C7.48651 0.182015 6.19843 0.679265 5.2256 1.66835C4.0621 2.85243 2.17818 4.99093 0.637681 7.80218C0.219314 8.56525 0 9.42145 0 10.2917C0 11.1619 0.219314 12.0181 0.637681 12.7812C2.17818 15.5924 4.06101 17.7309 5.2256 18.915C6.19843 19.9041 7.48651 20.4013 8.77893 20.4598C10.0323 20.5162 11.9748 20.5833 14.1024 20.5833H18.5528C18.5582 11.3068 18.6091 6.08076 18.6611 3.15143C18.6882 1.5871 18.7153 0.666265 18.7369 0.125682ZM6.09335 7.04168C6.09335 6.6107 6.26455 6.19738 6.5693 5.89263C6.87405 5.58789 7.28737 5.41668 7.71835 5.41668H13.6767C14.1077 5.41668 14.521 5.58789 14.8257 5.89263C15.1305 6.19738 15.3017 6.6107 15.3017 7.04168C15.3017 7.47266 15.1305 7.88598 14.8257 8.19073C14.521 8.49548 14.1077 8.66668 13.6767 8.66668H7.71835C7.28737 8.66668 6.87405 8.49548 6.5693 8.19073C6.26455 7.88598 6.09335 7.47266 6.09335 7.04168ZM10.9683 11.9167C10.5374 11.9167 10.124 12.0879 9.8193 12.3926C9.51455 12.6974 9.34335 13.1107 9.34335 13.5417C9.34335 13.9727 9.51455 14.386 9.8193 14.6907C10.124 14.9955 10.5374 15.1667 10.9683 15.1667H14.2183C14.6493 15.1667 15.0626 14.9955 15.3674 14.6907C15.6721 14.386 15.8433 13.9727 15.8433 13.5417C15.8433 13.1107 15.6721 12.6974 15.3674 12.3926C15.0626 12.0879 14.6493 11.9167 14.2183 11.9167H10.9683ZM29.385 32.5H33.8343C35.9608 32.5 37.9044 32.4328 39.1578 32.3765C40.4502 32.318 41.7383 31.8208 42.7111 30.8317C43.8746 29.6476 45.7585 27.5091 47.299 24.6978C47.7174 23.9348 47.9367 23.0786 47.9367 22.2083C47.9367 21.3381 47.7174 20.4819 47.299 19.7188C45.7585 16.9076 43.8757 14.7691 42.7111 13.585C41.7383 12.5959 40.4502 12.0987 39.1578 12.0402C37.9044 11.9838 35.9619 11.9167 33.8343 11.9167H29.3612C29.3763 14.7604 29.385 18.2488 29.385 22.5268V32.5ZM41.8433 18.9583C41.8433 18.5274 41.6721 18.114 41.3674 17.8093C41.0627 17.5046 40.6493 17.3333 40.2183 17.3333H34.26C33.829 17.3333 33.4157 17.5046 33.111 17.8093C32.8062 18.114 32.635 18.5274 32.635 18.9583C32.635 19.3893 32.8062 19.8026 33.111 20.1074C33.4157 20.4121 33.829 20.5833 34.26 20.5833H40.2183C40.6493 20.5833 41.0627 20.4121 41.3674 20.1074C41.6721 19.8026 41.8433 19.3893 41.8433 18.9583ZM36.9683 23.8333C37.3993 23.8333 37.8127 24.0046 38.1174 24.3093C38.4221 24.614 38.5933 25.0274 38.5933 25.4583C38.5933 25.8893 38.4221 26.3026 38.1174 26.6074C37.8127 26.9121 37.3993 27.0833 36.9683 27.0833H33.7183C33.505 27.0833 33.2936 27.0413 33.0965 26.9597C32.8993 26.878 32.7202 26.7583 32.5693 26.6074C32.4184 26.4565 32.2987 26.2774 32.217 26.0802C32.1354 25.8831 32.0933 25.6717 32.0933 25.4583C32.0933 25.2449 32.1354 25.0336 32.217 24.8365C32.2987 24.6393 32.4184 24.4602 32.5693 24.3093C32.7202 24.1584 32.8993 24.0387 33.0965 23.957C33.2936 23.8754 33.505 23.8333 33.7183 23.8333H36.9683ZM33.7183 43.3333H26.6767V23.2917C26.6767 10.1292 26.5857 4.71576 26.5218 2.53177C26.5055 2.00635 26.3885 1.4506 26.1101 0.989099C25.9661 0.736868 25.7661 0.521095 25.5255 0.35843C25.2848 0.195766 25.0101 0.0905604 24.7223 0.0509322C24.4725 0.0164266 24.2206 -0.000587042 23.9683 1.54553e-05C23.6896 0.000737677 23.4382 0.01771 23.2143 0.0509322C22.5708 0.143016 22.1126 0.513515 21.8255 0.989099C21.5482 1.4506 21.4312 2.00743 21.4149 2.53177C21.351 4.71576 21.26 10.1292 21.26 23.2917V43.3333H14.2183C13.5001 43.3333 12.8112 43.6187 12.3033 44.1266C11.7954 44.6345 11.51 45.3234 11.51 46.0417C11.51 46.76 11.7954 47.4489 12.3033 47.9568C12.8112 48.4647 13.5001 48.75 14.2183 48.75H33.7183C34.4366 48.75 35.1255 48.4647 35.6334 47.9568C36.1413 47.4489 36.4267 46.76 36.4267 46.0417C36.4267 45.3234 36.1413 44.6345 35.6334 44.1266C35.1255 43.6187 34.4366 43.3333 33.7183 43.3333Z" fill="black"/>
</svg>
