<svg width="44" height="30" viewBox="0 0 44 30" fill="none" xmlns="http://www.w3.org/2000/svg">
<path d="M28.6667 10.6667L38.7844 5.73533C39.1232 5.57031 39.4995 5.49241 39.8778 5.50902C40.256 5.52563 40.6237 5.6362 40.9458 5.83025C41.2679 6.02429 41.5338 6.29537 41.7183 6.61775C41.9028 6.94014 41.9998 7.30315 42 7.67233V22.3277C41.9998 22.6968 41.9028 23.0599 41.7183 23.3822C41.5338 23.7046 41.2679 23.9757 40.9458 24.1698C40.6237 24.3638 40.256 24.4744 39.8778 24.491C39.4995 24.5076 39.1232 24.4297 38.7844 24.2647L28.6667 19.3333V10.6667ZM2 6.33333C2 5.18406 2.46825 4.08186 3.30175 3.2692C4.13524 2.45655 5.2657 2 6.44444 2H24.2222C25.401 2 26.5314 2.45655 27.3649 3.2692C28.1984 4.08186 28.6667 5.18406 28.6667 6.33333V23.6667C28.6667 24.8159 28.1984 25.9181 27.3649 26.7308C26.5314 27.5435 25.401 28 24.2222 28H6.44444C5.2657 28 4.13524 27.5435 3.30175 26.7308C2.46825 25.9181 2 24.8159 2 23.6667V6.33333Z" stroke="black" stroke-width="4" stroke-linecap="round" stroke-linejoin="round"/>
</svg>
