<svg width="42" height="47" viewBox="0 0 42 47" fill="none" xmlns="http://www.w3.org/2000/svg">
<path d="M28.886 20.9982C29.4168 19.497 30.4611 18.2317 31.8346 17.4261C33.208 16.6204 34.822 16.3262 36.3914 16.5954C37.9608 16.8647 39.3844 17.6801 40.4107 18.8975C41.437 20.1149 42 21.6559 42 23.2482C42 24.8405 41.437 26.3816 40.4107 27.599C39.3844 28.8164 37.9608 29.6318 36.3914 29.901C34.822 30.1703 33.208 29.8761 31.8346 29.0704C30.4611 28.2647 29.4168 26.9995 28.886 25.4982H22.868C22.3355 27.0052 21.2855 28.2743 19.905 29.0796C18.5244 29.885 16.9029 30.1744 15.329 29.8962L12.092 35.6202C13.0652 36.8802 13.5617 38.4436 13.4939 40.0342C13.426 41.6248 12.7981 43.1402 11.7211 44.3127C10.6441 45.4852 9.18729 46.2393 7.60815 46.4417C6.02901 46.6441 4.42915 46.2818 3.09126 45.4188C1.75337 44.5559 0.763554 43.2478 0.296717 41.7257C-0.17012 40.2037 -0.0839333 38.5656 0.540049 37.1009C1.16403 35.6362 2.28565 34.4392 3.70671 33.7214C5.12777 33.0036 6.75681 32.8112 8.30599 33.1782L11.411 27.6822C10.3408 26.453 9.75156 24.878 9.752 23.2482C9.752 21.5502 10.379 20.0022 11.411 18.8142L8.30599 13.3182C6.75681 13.6852 5.12777 13.4928 3.70671 12.775C2.28565 12.0572 1.16403 10.8603 0.540049 9.39557C-0.0839333 7.93089 -0.17012 6.29279 0.296717 4.77072C0.763554 3.24864 1.75337 1.94057 3.09126 1.07762C4.42915 0.214663 6.02901 -0.147618 7.60815 0.0547858C9.18729 0.257189 10.6441 1.01125 11.7211 2.18373C12.7981 3.3562 13.426 4.87163 13.4939 6.46224C13.5617 8.05285 13.0652 9.61626 12.092 10.8762L15.329 16.6002C16.9029 16.3221 18.5244 16.6114 19.905 17.4168C21.2855 18.2222 22.3355 19.4913 22.868 20.9982H28.886ZM4.502 6.74822C4.502 7.34496 4.73905 7.91726 5.161 8.33921C5.58296 8.76117 6.15526 8.99822 6.752 8.99822C7.34873 8.99822 7.92103 8.76117 8.34299 8.33921C8.76494 7.91726 9.002 7.34496 9.002 6.74822C9.002 6.15149 8.76494 5.57919 8.34299 5.15723C7.92103 4.73528 7.34873 4.49822 6.752 4.49822C6.15526 4.49822 5.58296 4.73528 5.161 5.15723C4.73905 5.57919 4.502 6.15149 4.502 6.74822ZM16.502 20.9982C15.9053 20.9982 15.333 21.2353 14.911 21.6572C14.489 22.0792 14.252 22.6515 14.252 23.2482C14.252 23.845 14.489 24.4173 14.911 24.8392C15.333 25.2612 15.9053 25.4982 16.502 25.4982C17.0987 25.4982 17.671 25.2612 18.093 24.8392C18.5149 24.4173 18.752 23.845 18.752 23.2482C18.752 22.6515 18.5149 22.0792 18.093 21.6572C17.671 21.2353 17.0987 20.9982 16.502 20.9982ZM35.252 20.9982C34.6553 20.9982 34.083 21.2353 33.661 21.6572C33.239 22.0792 33.002 22.6515 33.002 23.2482C33.002 23.845 33.239 24.4173 33.661 24.8392C34.083 25.2612 34.6553 25.4982 35.252 25.4982C35.8487 25.4982 36.421 25.2612 36.843 24.8392C37.2649 24.4173 37.502 23.845 37.502 23.2482C37.502 22.6515 37.2649 22.0792 36.843 21.6572C36.421 21.2353 35.8487 20.9982 35.252 20.9982ZM6.752 37.4982C6.15526 37.4982 5.58296 37.7353 5.161 38.1572C4.73905 38.5792 4.502 39.1515 4.502 39.7482C4.502 40.345 4.73905 40.9173 5.161 41.3392C5.58296 41.7612 6.15526 41.9982 6.752 41.9982C7.34873 41.9982 7.92103 41.7612 8.34299 41.3392C8.76494 40.9173 9.002 40.345 9.002 39.7482C9.002 39.1515 8.76494 38.5792 8.34299 38.1572C7.92103 37.7353 7.34873 37.4982 6.752 37.4982Z" fill="black"/>
</svg>
