<svg width="110" height="70" viewBox="0 0 110 70" fill="none" xmlns="http://www.w3.org/2000/svg">
<path d="M107.415 6.70834C106.579 6.19636 105.63 5.92682 104.665 5.92682C103.7 5.92682 102.751 6.19636 101.915 6.70834L82.5 16.8583C82.3433 12.3292 80.536 8.04109 77.4585 4.89673C74.3809 1.75236 70.2732 -0.00304369 66 3.96175e-06H16.5C12.1239 3.96175e-06 7.92709 1.84375 4.83274 5.12564C1.73839 8.40752 0 12.8587 0 17.5V52.5C0 57.1413 1.73839 61.5925 4.83274 64.8744C7.92709 68.1562 12.1239 70 16.5 70H66C70.2732 70.003 74.3809 68.2476 77.4585 65.1033C80.536 61.9589 82.3433 57.6708 82.5 53.1417L102.08 63.525C102.83 63.9326 103.658 64.1522 104.5 64.1667C105.53 64.1702 106.54 63.867 107.415 63.2917C108.208 62.7663 108.861 62.0353 109.313 61.1677C109.765 60.3002 110.002 59.3247 110 58.3333V11.6667C110.002 10.6753 109.765 9.69983 109.313 8.83228C108.861 7.96473 108.208 7.23375 107.415 6.70834ZM71.5 52.5C71.5 54.0471 70.9205 55.5308 69.8891 56.6248C68.8576 57.7187 67.4587 58.3333 66 58.3333H16.5C15.0413 58.3333 13.6424 57.7187 12.6109 56.6248C11.5795 55.5308 11 54.0471 11 52.5V17.5C11 15.9529 11.5795 14.4692 12.6109 13.3752C13.6424 12.2813 15.0413 11.6667 16.5 11.6667H66C67.4587 11.6667 68.8576 12.2813 69.8891 13.3752C70.9205 14.4692 71.5 15.9529 71.5 17.5V52.5ZM99 48.8833L82.5 40.1333V29.8667L99 21.1167V48.8833Z" fill="#777777" fill-opacity="0.8"/>
</svg>
